<svg width="1200" height="630" viewBox="0 0 1200 630" fill="none" xmlns="http://www.w3.org/2000/svg">
<rect width="1200" height="630" fill="white"/>
<path d="M323.534 279.957L290.717 353.988H288.081L255 279.957H266.466L289.267 331.766L312.068 279.957H323.534Z" fill="#282828"/>
<path d="M341.684 253C344.056 253 346.033 253.833 347.615 255.498C349.284 257.076 350.119 259.049 350.119 261.416C350.119 263.695 349.284 265.667 347.615 267.333C346.033 268.911 344.056 269.7 341.684 269.7C339.399 269.7 337.422 268.867 335.753 267.201C334.171 265.536 333.381 263.607 333.381 261.416C333.381 259.136 334.171 257.164 335.753 255.498C337.422 253.833 339.399 253 341.684 253ZM347.219 351.621H336.28V279.957H347.219V351.621Z" fill="#282828"/>
<path d="M377.954 290.476C385.422 282.236 394.384 278.116 404.84 278.116C415.296 278.116 424.082 281.841 431.199 289.293C438.404 296.656 442.007 305.554 442.007 315.986C442.007 326.418 438.36 335.36 431.068 342.811C423.775 350.263 414.944 353.988 404.576 353.988C394.296 353.988 385.422 349.517 377.954 340.576V351.621H367.278V253H377.954V290.476ZM404.181 343.469C411.65 343.469 417.976 340.707 423.16 335.185C428.432 329.662 431.068 323.218 431.068 315.855C431.068 308.403 428.519 301.916 423.423 296.393C418.327 290.871 411.957 288.109 404.313 288.109C396.669 288.109 390.255 290.695 385.071 295.867C379.974 301.04 377.426 307.571 377.426 315.46C377.426 323.262 380.018 329.881 385.202 335.316C390.386 340.751 396.713 343.469 404.181 343.469Z" fill="#282828"/>
<path d="M529.867 317.696H466.869C467.308 325.585 469.944 331.941 474.777 336.762C479.697 341.496 485.54 343.863 492.305 343.863C503.816 343.863 512.602 338.209 518.665 326.9L527.89 331.634C523.761 339.261 518.884 344.915 513.261 348.597C507.638 352.191 500.916 353.988 493.096 353.988C482.289 353.988 473.371 350.306 466.342 342.943C459.312 335.491 455.798 326.55 455.798 316.118C455.798 305.686 459.312 296.744 466.342 289.293C473.459 281.841 482.245 278.116 492.701 278.116C503.157 278.116 511.899 281.666 518.928 288.767C525.957 295.78 529.604 305.423 529.867 317.696ZM517.742 308.097C516.424 301.96 513.437 297.182 508.78 293.764C504.123 290.345 498.763 288.635 492.701 288.635C480.4 288.635 472.228 295.122 468.187 308.097H517.742Z" fill="#282828"/>
<path d="M584.878 288.372L577.893 295.604C572.709 290.783 567.964 288.372 563.659 288.372C560.935 288.372 558.65 289.249 556.805 291.002C554.96 292.668 554.038 294.772 554.038 297.314C554.038 299.768 555.048 301.96 557.069 303.889C559.178 305.73 562.868 308.053 568.14 310.858C573.412 313.575 577.453 316.6 580.265 319.931C583.165 323.262 584.614 327.339 584.614 332.16C584.614 338.297 582.462 343.469 578.156 347.677C573.939 351.884 568.711 353.988 562.473 353.988C553.774 353.988 546.525 350.306 540.726 342.943L547.58 335.316C552.324 340.839 557.157 343.6 562.077 343.6C565.416 343.6 568.272 342.504 570.644 340.313C573.016 338.121 574.202 335.579 574.202 332.686C574.202 329.706 573.104 327.251 570.908 325.322C568.799 323.306 565.108 320.983 559.837 318.353C554.653 315.723 550.699 312.83 547.975 309.674C545.339 306.431 544.021 302.223 544.021 297.051C544.021 291.791 545.91 287.32 549.688 283.638C553.554 279.957 558.607 278.116 564.845 278.116C571.171 278.116 577.849 281.534 584.878 288.372Z" fill="#282828"/>
<path d="M612.12 290.871C619.237 282.367 628.023 278.116 638.479 278.116C648.935 278.116 657.809 281.841 665.102 289.293C672.394 296.656 676.041 305.554 676.041 315.986C676.041 326.418 672.438 335.36 665.234 342.811C658.029 350.263 649.33 353.988 639.138 353.988C628.946 353.988 619.94 349.693 612.12 341.102V377H601.312V279.957H612.12V290.871ZM638.479 343.863C645.684 343.863 651.922 341.189 657.194 335.842C662.554 330.407 665.234 323.876 665.234 316.249C665.234 308.622 662.598 302.135 657.326 296.788C652.142 291.353 645.772 288.635 638.215 288.635C630.659 288.635 624.289 291.309 619.105 296.656C614.009 301.916 611.461 308.447 611.461 316.249C611.461 324.051 614.097 330.626 619.368 335.973C624.64 341.233 631.01 343.863 638.479 343.863Z" fill="#282828"/>
<path d="M765.22 351.621H754.544V341.102C746.724 349.693 737.718 353.988 727.526 353.988C717.334 353.988 708.591 350.263 701.298 342.811C694.093 335.272 690.491 326.331 690.491 315.986C690.491 305.554 694.137 296.656 701.43 289.293C708.723 281.841 717.597 278.116 728.053 278.116C738.597 278.116 747.427 282.367 754.544 290.871V279.957H765.22V351.621ZM728.317 343.863C735.609 343.863 741.892 341.233 747.163 335.973C752.435 330.714 755.071 324.183 755.071 316.381C755.071 308.491 752.479 301.916 747.295 296.656C742.111 291.309 735.741 288.635 728.185 288.635C720.716 288.635 714.39 291.397 709.206 296.919C704.022 302.355 701.43 308.798 701.43 316.249C701.43 323.701 704.066 330.188 709.338 335.711C714.61 341.146 720.936 343.863 728.317 343.863Z" fill="#282828"/>
<path d="M856.504 337.025C852.726 342.548 847.761 346.756 841.611 349.649C835.548 352.542 828.959 353.988 821.842 353.988C810.771 353.988 801.501 350.35 794.032 343.074C786.652 335.798 782.962 326.9 782.962 316.381C782.962 305.861 786.696 296.876 794.164 289.424C801.633 281.885 811.298 278.116 823.159 278.116C830.189 278.116 836.647 279.65 842.534 282.718C848.508 285.786 853.165 290.082 856.504 295.604L847.937 300.996C841.523 292.668 833.132 288.504 822.764 288.504C814.593 288.504 807.739 291.134 802.204 296.393C796.668 301.566 793.901 308.009 793.901 315.723C793.901 323.438 796.625 330.056 802.072 335.579C807.52 341.102 814.417 343.863 822.764 343.863C832.781 343.863 841.216 339.655 848.069 331.24L856.504 337.025Z" fill="#282828"/>
<path d="M945 317.696H882.001C882.441 325.585 885.077 331.941 889.909 336.762C894.83 341.496 900.673 343.863 907.438 343.863C918.948 343.863 927.735 338.209 933.797 326.9L943.023 331.634C938.893 339.261 934.017 344.915 928.394 348.597C922.77 352.191 916.049 353.988 908.229 353.988C897.422 353.988 888.503 350.306 881.474 342.943C874.445 335.491 870.931 326.55 870.931 316.118C870.931 305.686 874.445 296.744 881.474 289.293C888.591 281.841 897.378 278.116 907.834 278.116C918.289 278.116 927.032 281.666 934.061 288.767C941.09 295.78 944.736 305.423 945 317.696ZM932.875 308.097C931.557 301.96 928.569 297.182 923.913 293.764C919.256 290.345 913.896 288.635 907.834 288.635C895.533 288.635 887.361 295.122 883.319 308.097H932.875Z" fill="#282828"/>
</svg>
